<?xml version="1.0" encoding="UTF-8"?>
<svg xmlns="http://www.w3.org/2000/svg" xmlns:xlink="http://www.w3.org/1999/xlink" width="16px" height="16px" viewBox="0 0 16 16" version="1.1">
<g id="surface1">
<path style=" stroke:none;fill-rule:nonzero;fill:rgb(0%,0%,0%);fill-opacity:1;" d="M 7.734375 3.234375 C 6.707031 3.292969 5.71875 3.6875 4.890625 4.367188 C 4.644531 4.570312 4.273438 4.960938 4.070312 5.226562 C 3.636719 5.800781 3.390625 6.296875 3.226562 6.914062 C 3.117188 7.316406 3.078125 7.609375 3.066406 8.070312 C 3.054688 8.550781 3.101562 8.96875 3.210938 9.4375 C 3.496094 10.628906 4.28125 11.726562 5.316406 12.386719 C 5.855469 12.726562 6.578125 12.996094 7.214844 13.09375 C 8.265625 13.253906 9.328125 13.078125 10.296875 12.585938 C 10.761719 12.347656 11.152344 12.058594 11.53125 11.667969 C 12.03125 11.148438 12.386719 10.558594 12.636719 9.835938 C 12.890625 9.089844 12.96875 8.140625 12.84375 7.359375 C 12.671875 6.304688 12.066406 5.234375 11.21875 4.492188 C 10.460938 3.828125 9.578125 3.414062 8.648438 3.28125 C 8.457031 3.253906 8.003906 3.214844 7.960938 3.222656 C 7.953125 3.222656 7.851562 3.226562 7.734375 3.234375 Z M 8.523438 3.71875 C 9.28125 3.828125 9.925781 4.085938 10.523438 4.523438 C 10.777344 4.707031 10.875 4.792969 11.140625 5.0625 C 11.695312 5.617188 12.011719 6.136719 12.246094 6.859375 C 12.375 7.25 12.417969 7.527344 12.433594 8.007812 C 12.449219 8.644531 12.371094 9.175781 12.175781 9.742188 C 11.835938 10.722656 11.164062 11.550781 10.308594 12.054688 C 9.535156 12.503906 8.6875 12.726562 7.828125 12.699219 C 7.507812 12.6875 7.25 12.648438 6.890625 12.5625 C 6.554688 12.476562 6.320312 12.390625 5.976562 12.21875 C 5.484375 11.976562 5.109375 11.703125 4.765625 11.347656 C 4.4375 11.007812 4.21875 10.703125 4.015625 10.289062 C 3.851562 9.960938 3.753906 9.691406 3.671875 9.367188 C 3.5625 8.941406 3.53125 8.664062 3.53125 8.1875 C 3.53125 7.125 3.84375 6.242188 4.515625 5.402344 C 5.078125 4.699219 5.894531 4.125 6.6875 3.882812 C 7.316406 3.6875 7.925781 3.632812 8.523438 3.71875 Z M 8.523438 3.71875 "/>
<path style=" stroke:none;fill-rule:nonzero;fill:rgb(0%,0%,0%);fill-opacity:1;" d="M 7.789062 4.335938 C 7.5 4.40625 7.28125 4.644531 7.234375 4.9375 C 7.226562 5 7.21875 5.375 7.21875 5.863281 L 7.21875 6.6875 L 6.992188 6.6875 C 6.726562 6.6875 6.667969 6.707031 6.546875 6.828125 C 6.414062 6.960938 6.363281 7.140625 6.425781 7.261719 C 6.480469 7.359375 7.78125 8.722656 7.847656 8.75 C 7.921875 8.78125 8.058594 8.777344 8.132812 8.742188 C 8.164062 8.726562 8.269531 8.632812 8.359375 8.539062 C 9.34375 7.515625 9.507812 7.339844 9.546875 7.265625 C 9.632812 7.09375 9.515625 6.839844 9.292969 6.730469 C 9.214844 6.6875 9.199219 6.6875 8.988281 6.6875 L 8.765625 6.6875 L 8.765625 6.003906 C 8.765625 5.628906 8.757812 5.214844 8.75 5.085938 C 8.742188 4.863281 8.738281 4.84375 8.6875 4.742188 C 8.621094 4.601562 8.496094 4.476562 8.351562 4.402344 C 8.171875 4.3125 7.988281 4.289062 7.789062 4.335938 Z M 8.148438 4.855469 C 8.179688 4.878906 8.222656 4.917969 8.242188 4.941406 C 8.273438 4.984375 8.273438 5 8.28125 5.992188 L 8.289062 6.996094 L 8.335938 7.058594 C 8.40625 7.144531 8.453125 7.15625 8.753906 7.15625 C 8.898438 7.15625 9.015625 7.160156 9.015625 7.164062 C 9.015625 7.171875 8.917969 7.273438 8.800781 7.398438 C 8.683594 7.519531 8.457031 7.757812 8.296875 7.929688 C 8.140625 8.101562 8 8.242188 7.992188 8.246094 C 7.980469 8.25 7.957031 8.234375 7.9375 8.210938 C 7.894531 8.152344 7.332031 7.550781 7.128906 7.34375 C 7.039062 7.25 6.96875 7.171875 6.96875 7.167969 C 6.96875 7.160156 7.09375 7.15625 7.25 7.15625 C 7.511719 7.15625 7.53125 7.15625 7.578125 7.121094 C 7.609375 7.101562 7.644531 7.0625 7.664062 7.03125 C 7.695312 6.976562 7.695312 6.949219 7.703125 5.984375 C 7.710938 5.25 7.714844 4.984375 7.730469 4.960938 C 7.757812 4.90625 7.855469 4.828125 7.902344 4.820312 C 7.925781 4.8125 7.953125 4.808594 7.960938 4.804688 C 8 4.792969 8.089844 4.820312 8.148438 4.855469 Z M 8.148438 4.855469 "/>
<path style=" stroke:none;fill-rule:nonzero;fill:rgb(0%,0%,0%);fill-opacity:1;" d="M 5.855469 6.007812 C 5.746094 6.046875 5.636719 6.148438 5.59375 6.257812 C 5.582031 6.285156 5.570312 6.390625 5.5625 6.5 C 5.554688 6.648438 5.550781 6.695312 5.53125 6.703125 C 5.519531 6.710938 5.445312 6.746094 5.367188 6.78125 C 5.109375 6.902344 4.925781 7.152344 4.890625 7.429688 C 4.878906 7.511719 4.875 8.148438 4.878906 9.28125 C 4.882812 10.796875 4.886719 11.015625 4.910156 11.085938 C 5.015625 11.421875 5.230469 11.644531 5.550781 11.757812 C 5.648438 11.789062 5.675781 11.789062 6.921875 11.796875 L 8.195312 11.804688 L 8.203125 11.914062 C 8.214844 12.085938 8.277344 12.160156 8.433594 12.203125 C 8.539062 12.230469 8.589844 12.203125 8.773438 12.027344 C 8.859375 11.9375 8.957031 11.84375 8.988281 11.8125 L 9.046875 11.761719 L 9.253906 11.960938 C 9.367188 12.074219 9.488281 12.179688 9.523438 12.195312 C 9.625 12.242188 9.757812 12.203125 9.839844 12.097656 C 9.875 12.050781 9.882812 12.023438 9.890625 11.917969 L 9.894531 11.796875 L 10.082031 11.796875 C 10.320312 11.796875 10.445312 11.769531 10.59375 11.679688 C 10.808594 11.554688 10.964844 11.367188 11.042969 11.132812 L 11.085938 11.007812 L 11.089844 9.238281 C 11.09375 7.285156 11.097656 7.359375 10.996094 7.164062 C 10.96875 7.109375 10.898438 7.019531 10.828125 6.953125 C 10.71875 6.839844 10.644531 6.792969 10.464844 6.722656 L 10.421875 6.703125 L 10.421875 6.527344 C 10.421875 6.367188 10.417969 6.34375 10.378906 6.257812 C 10.308594 6.113281 10.164062 6 10.050781 6 C 10.027344 6 10 6.007812 9.988281 6.019531 C 9.972656 6.03125 9.96875 6.425781 9.96875 7.6875 C 9.96875 8.597656 9.964844 9.351562 9.960938 9.367188 C 9.941406 9.414062 9.898438 9.421875 9.792969 9.398438 C 9.566406 9.347656 9.117188 9.277344 8.8125 9.25 C 7.910156 9.167969 7.226562 9.203125 6.242188 9.390625 C 6.105469 9.414062 6.082031 9.417969 6.050781 9.398438 L 6.015625 9.375 L 6.015625 7.703125 C 6.015625 6.207031 6.011719 6.03125 5.992188 6.007812 C 5.960938 5.980469 5.933594 5.980469 5.855469 6.007812 Z M 5.566406 8.378906 L 5.570312 9.570312 L 5.605469 9.636719 C 5.648438 9.71875 5.730469 9.796875 5.804688 9.835938 C 5.90625 9.882812 6.023438 9.882812 6.234375 9.835938 C 6.84375 9.710938 7.523438 9.648438 8.152344 9.660156 C 8.722656 9.671875 9.136719 9.71875 9.671875 9.820312 C 10 9.886719 10.085938 9.886719 10.195312 9.820312 C 10.234375 9.800781 10.289062 9.753906 10.320312 9.71875 C 10.425781 9.59375 10.421875 9.636719 10.421875 8.359375 C 10.421875 7.710938 10.429688 7.199219 10.4375 7.195312 C 10.460938 7.179688 10.589844 7.339844 10.617188 7.417969 C 10.644531 7.488281 10.648438 7.585938 10.652344 8.824219 C 10.65625 9.554688 10.652344 10.15625 10.648438 10.15625 C 10.640625 10.15625 10.601562 10.136719 10.5625 10.113281 C 10.421875 10.023438 10.320312 9.996094 10.148438 9.992188 C 9.917969 9.992188 9.835938 10.039062 9.816406 10.183594 C 9.800781 10.308594 9.941406 10.421875 10.113281 10.421875 C 10.234375 10.421875 10.355469 10.46875 10.453125 10.558594 C 10.5625 10.65625 10.609375 10.757812 10.609375 10.898438 C 10.609375 11.03125 10.578125 11.109375 10.476562 11.21875 C 10.371094 11.328125 10.296875 11.355469 10.078125 11.359375 L 9.898438 11.363281 L 9.890625 11.125 C 9.882812 10.90625 9.878906 10.878906 9.847656 10.835938 C 9.777344 10.734375 9.632812 10.710938 9.539062 10.78125 C 9.457031 10.851562 9.453125 10.867188 9.453125 11.351562 L 9.453125 11.800781 L 9.257812 11.617188 C 9.148438 11.515625 9.054688 11.4375 9.035156 11.4375 C 9.015625 11.4375 8.933594 11.507812 8.828125 11.617188 C 8.734375 11.714844 8.652344 11.796875 8.648438 11.796875 C 8.644531 11.796875 8.640625 11.601562 8.640625 11.359375 C 8.640625 10.890625 8.632812 10.84375 8.5625 10.789062 C 8.445312 10.710938 8.296875 10.738281 8.234375 10.859375 C 8.207031 10.914062 8.203125 10.949219 8.203125 11.140625 L 8.203125 11.359375 L 6.949219 11.355469 C 5.550781 11.351562 5.65625 11.359375 5.519531 11.242188 C 5.371094 11.113281 5.324219 10.878906 5.410156 10.710938 C 5.46875 10.59375 5.585938 10.496094 5.710938 10.457031 C 5.808594 10.421875 5.839844 10.421875 6.46875 10.421875 C 7.195312 10.421875 7.207031 10.421875 7.265625 10.324219 C 7.332031 10.21875 7.289062 10.085938 7.167969 10.03125 C 7.105469 10.003906 7.058594 10 6.394531 10 C 5.59375 10 5.597656 10 5.398438 10.125 C 5.347656 10.160156 5.304688 10.179688 5.300781 10.175781 C 5.296875 10.167969 5.304688 9.550781 5.308594 8.804688 L 5.320312 7.445312 L 5.359375 7.375 C 5.398438 7.300781 5.507812 7.1875 5.539062 7.1875 C 5.558594 7.1875 5.5625 7.410156 5.566406 8.378906 Z M 5.566406 8.378906 "/>
<path style=" stroke:none;fill-rule:nonzero;fill:rgb(0%,0%,0%);fill-opacity:1;" d="M 5.707031 10.6875 C 5.609375 10.746094 5.59375 10.859375 5.671875 10.929688 L 5.722656 10.96875 L 7.203125 10.96875 L 7.242188 10.929688 C 7.285156 10.882812 7.296875 10.789062 7.265625 10.730469 C 7.226562 10.660156 7.1875 10.65625 6.449219 10.65625 C 5.792969 10.65625 5.753906 10.65625 5.707031 10.6875 Z M 5.707031 10.6875 "/>
<path style=" stroke:none;fill-rule:nonzero;fill:rgb(0%,0%,0%);fill-opacity:1;" d="M 6.753906 8.382812 C 6.597656 8.414062 6.457031 8.441406 6.4375 8.453125 C 6.359375 8.496094 6.328125 8.632812 6.390625 8.699219 C 6.4375 8.75 6.492188 8.757812 6.609375 8.738281 C 7.066406 8.65625 7.164062 8.636719 7.1875 8.625 C 7.203125 8.617188 7.230469 8.585938 7.242188 8.558594 C 7.296875 8.457031 7.207031 8.328125 7.085938 8.328125 C 7.0625 8.328125 6.910156 8.355469 6.753906 8.382812 Z M 6.753906 8.382812 "/>
<path style=" stroke:none;fill-rule:nonzero;fill:rgb(0%,0%,0%);fill-opacity:1;" d="M 8.816406 8.34375 C 8.769531 8.363281 8.726562 8.433594 8.726562 8.496094 C 8.726562 8.570312 8.796875 8.632812 8.890625 8.648438 C 8.929688 8.652344 9.074219 8.679688 9.214844 8.703125 C 9.484375 8.757812 9.527344 8.757812 9.585938 8.695312 C 9.65625 8.625 9.625 8.492188 9.527344 8.449219 C 9.46875 8.421875 9.105469 8.351562 8.953125 8.335938 C 8.898438 8.332031 8.835938 8.335938 8.816406 8.34375 Z M 8.816406 8.34375 "/>
</g>
</svg>
