<?xml version="1.0" encoding="UTF-8"?>
<svg xmlns="http://www.w3.org/2000/svg" width="24" height="24" viewBox="0 0 24 24" fill="none">
<g id="surface1">
<path style=" stroke:none;fill-rule:nonzero;fill:rgb(0%,0%,0%);fill-opacity:1;" d="M 11.457031 0.378906 C 11.058594 0.757812 10.710938 0.929688 10.351562 0.929688 C 10.144531 0.929688 9.441406 1.1875 9.105469 1.394531 C 8.414062 1.804688 7.871094 2.664062 7.765625 3.5 C 7.738281 3.730469 7.648438 3.921875 7.480469 4.144531 C 7.191406 4.511719 6.914062 5.167969 6.90625 5.484375 L 6.90625 5.699219 L 6.328125 5.671875 C 5.832031 5.640625 5.6875 5.664062 5.332031 5.8125 C 5.058594 5.929688 4.855469 5.964844 4.746094 5.9375 C 4.648438 5.90625 4.332031 5.886719 4.039062 5.878906 C 2.867188 5.863281 1.917969 6.523438 1.304688 7.769531 C 1.09375 8.199219 0.992188 8.296875 0.503906 8.550781 C -0.0351562 8.828125 -0.0820312 8.992188 0.203125 9.53125 L 0.433594 9.960938 L 0.382812 10.875 C 0.34375 11.636719 0.355469 11.863281 0.453125 12.214844 C 0.703125 13.117188 1.222656 13.769531 1.988281 14.140625 C 2.21875 14.25 2.378906 14.378906 2.414062 14.476562 C 2.484375 14.714844 3.070312 15.316406 3.382812 15.480469 C 3.539062 15.558594 3.675781 15.636719 3.691406 15.652344 C 3.703125 15.660156 3.648438 15.816406 3.566406 15.996094 C 3.382812 16.367188 3.277344 16.960938 3.328125 17.335938 C 3.355469 17.527344 3.3125 17.714844 3.148438 18.0625 C 2.589844 19.261719 2.820312 20.535156 3.773438 21.578125 C 4.234375 22.089844 4.394531 22.410156 4.394531 22.839844 C 4.394531 23.035156 4.445312 23.175781 4.535156 23.269531 C 4.667969 23.40625 4.738281 23.414062 5.289062 23.371094 C 5.867188 23.328125 5.917969 23.335938 6.347656 23.550781 C 7.703125 24.214844 8.929688 24.085938 9.859375 23.199219 C 10.164062 22.910156 10.386719 22.753906 10.605469 22.695312 C 11.058594 22.566406 11.441406 22.359375 11.742188 22.066406 L 12 21.808594 L 12.265625 22.066406 C 12.550781 22.359375 13.191406 22.695312 13.457031 22.695312 C 13.570312 22.695312 13.773438 22.839844 14.03125 23.089844 C 15.0625 24.101562 16.214844 24.207031 17.820312 23.449219 C 18.214844 23.253906 18.246094 23.253906 18.703125 23.335938 C 19.382812 23.464844 19.605469 23.292969 19.605469 22.660156 C 19.605469 22.289062 19.710938 22.089844 20.167969 21.578125 C 20.433594 21.285156 20.6875 20.914062 20.847656 20.5625 C 21.089844 20.046875 21.105469 19.96875 21.105469 19.332031 C 21.105469 18.714844 21.082031 18.609375 20.875 18.148438 C 20.679688 17.722656 20.644531 17.554688 20.628906 17.039062 C 20.609375 16.476562 20.539062 16.21875 20.253906 15.671875 C 20.238281 15.644531 20.316406 15.59375 20.421875 15.550781 C 20.777344 15.421875 21.1875 15.050781 21.425781 14.65625 C 21.613281 14.339844 21.746094 14.21875 22.09375 14.039062 C 23.234375 13.433594 23.785156 12.199219 23.582031 10.734375 L 23.492188 10.09375 L 23.714844 9.628906 C 24.027344 8.980469 23.992188 8.828125 23.503906 8.554688 C 22.972656 8.261719 22.925781 8.21875 22.632812 7.675781 C 22.296875 7.058594 21.65625 6.371094 21.1875 6.128906 C 20.65625 5.855469 20.050781 5.765625 19.464844 5.863281 C 19.03125 5.9375 18.960938 5.929688 18.65625 5.785156 C 18.382812 5.65625 18.1875 5.628906 17.699219 5.628906 C 17.101562 5.628906 17.085938 5.621094 17.050781 5.441406 C 16.945312 4.949219 16.785156 4.582031 16.535156 4.238281 C 16.324219 3.960938 16.234375 3.738281 16.15625 3.371094 C 15.957031 2.378906 15.460938 1.710938 14.582031 1.265625 C 14.300781 1.117188 13.890625 0.980469 13.589844 0.929688 C 12.960938 0.824219 12.773438 0.730469 12.480469 0.363281 C 12.105469 -0.0859375 11.949219 -0.0859375 11.457031 0.378906 Z M 13.027344 1.789062 C 14.582031 2.105469 15.160156 2.628906 15.273438 3.824219 C 15.3125 4.332031 15.335938 4.375 15.636719 4.703125 C 15.816406 4.898438 15.996094 5.175781 16.046875 5.328125 C 16.128906 5.59375 16.109375 6.1875 16.019531 6.277344 C 15.996094 6.308594 15.746094 6.207031 15.46875 6.0625 C 14.183594 5.40625 13.3125 5.191406 11.929688 5.199219 C 11.136719 5.199219 10.785156 5.234375 10.304688 5.355469 C 9.621094 5.527344 8.789062 5.863281 8.289062 6.164062 L 7.960938 6.363281 L 7.882812 6.101562 C 7.746094 5.578125 7.855469 5.207031 8.300781 4.703125 C 8.609375 4.359375 8.652344 4.273438 8.652344 3.996094 C 8.652344 3.488281 8.832031 2.992188 9.148438 2.621094 C 9.507812 2.199219 9.832031 2.035156 10.625 1.855469 C 11.203125 1.726562 11.789062 1.46875 11.894531 1.296875 C 11.917969 1.261719 12.089844 1.339844 12.277344 1.46875 C 12.480469 1.609375 12.796875 1.738281 13.027344 1.789062 Z M 12.664062 6.085938 C 13.011719 6.128906 13.480469 6.214844 13.710938 6.273438 C 14.308594 6.4375 15.445312 7.015625 15.984375 7.433594 C 17.265625 8.433594 18.203125 9.964844 18.523438 11.59375 C 18.703125 12.488281 18.640625 13.992188 18.390625 14.84375 C 18.050781 16.015625 17.476562 16.992188 16.625 17.835938 C 14.804688 19.652344 12.335938 20.269531 9.949219 19.496094 C 7.8125 18.808594 6.113281 17.003906 5.503906 14.785156 C 5.203125 13.675781 5.199219 12.257812 5.492188 11.132812 C 5.652344 10.519531 6.203125 9.34375 6.578125 8.835938 C 6.957031 8.328125 7.722656 7.566406 8.199219 7.230469 C 8.992188 6.671875 10.214844 6.207031 11.199219 6.09375 C 11.902344 6.007812 11.972656 6.007812 12.664062 6.085938 Z M 6.886719 6.789062 L 7.101562 6.945312 L 6.585938 7.480469 C 5.316406 8.808594 4.527344 10.617188 4.417969 12.492188 C 4.382812 13.125 4.457031 14.140625 4.582031 14.65625 C 4.613281 14.800781 4.589844 14.820312 4.421875 14.820312 C 4.15625 14.8125 3.703125 14.597656 3.507812 14.382812 C 3.425781 14.285156 3.277344 14.0625 3.1875 13.890625 C 3.050781 13.617188 2.945312 13.523438 2.527344 13.308594 C 1.925781 13.003906 1.75 12.84375 1.515625 12.402344 C 1.277344 11.941406 1.226562 11.492188 1.332031 10.734375 C 1.417969 10.160156 1.410156 10.058594 1.296875 9.6875 C 1.199219 9.371094 1.191406 9.273438 1.253906 9.25 C 1.472656 9.171875 1.875 8.699219 2.128906 8.226562 C 2.761719 7.039062 3.628906 6.578125 4.632812 6.902344 C 4.972656 7.007812 4.988281 7.007812 5.433594 6.792969 C 5.992188 6.535156 6.539062 6.53125 6.886719 6.789062 Z M 18.472656 6.773438 C 18.753906 6.917969 18.898438 6.945312 19.066406 6.917969 C 19.191406 6.886719 19.515625 6.84375 19.785156 6.824219 C 20.199219 6.792969 20.335938 6.816406 20.636719 6.945312 C 21.0625 7.132812 21.542969 7.632812 21.800781 8.164062 C 22.003906 8.578125 22.480469 9.136719 22.675781 9.199219 C 22.800781 9.242188 22.800781 9.265625 22.703125 9.542969 C 22.617188 9.789062 22.605469 10.046875 22.648438 10.855469 C 22.6875 11.769531 22.679688 11.894531 22.550781 12.1875 C 22.347656 12.652344 21.96875 13.046875 21.542969 13.238281 C 20.972656 13.496094 20.972656 13.496094 20.867188 13.71875 C 20.574219 14.371094 20.183594 14.699219 19.605469 14.792969 L 19.304688 14.84375 L 19.351562 14.527344 C 19.5 13.589844 19.542969 13.003906 19.5 12.457031 C 19.351562 10.488281 18.621094 8.820312 17.308594 7.460938 C 16.757812 6.894531 16.765625 6.953125 17.265625 6.671875 C 17.527344 6.523438 18.082031 6.574219 18.472656 6.773438 Z M 19.613281 16.53125 C 19.660156 16.683594 19.675781 16.992188 19.652344 17.335938 C 19.617188 17.820312 19.625 17.90625 19.75 18.070312 C 20.007812 18.40625 20.183594 18.921875 20.183594 19.339844 C 20.183594 19.96875 19.988281 20.363281 19.234375 21.25 C 18.996094 21.535156 18.824219 21.816406 18.765625 22.015625 L 18.675781 22.339844 L 18.300781 22.339844 C 18 22.339844 17.777344 22.402344 17.273438 22.632812 C 16.410156 23.039062 15.808594 23.089844 15.25 22.8125 C 15.015625 22.691406 14.726562 22.460938 14.519531 22.222656 C 14.210938 21.867188 14.140625 21.824219 13.808594 21.773438 C 13.207031 21.6875 12.851562 21.4375 12.601562 20.929688 L 12.488281 20.699219 L 12.824219 20.65625 C 15.453125 20.277344 17.714844 18.617188 18.773438 16.253906 L 19.003906 15.75 L 19.269531 16.015625 C 19.417969 16.160156 19.570312 16.390625 19.613281 16.53125 Z M 5.785156 17.414062 C 6.210938 18.050781 7.03125 18.886719 7.675781 19.332031 C 8.601562 19.976562 9.949219 20.5 11.113281 20.65625 C 11.503906 20.707031 11.519531 20.777344 11.234375 21.179688 C 10.988281 21.53125 10.617188 21.738281 10.128906 21.808594 C 9.816406 21.851562 9.746094 21.894531 9.453125 22.238281 C 8.785156 23.039062 7.875 23.234375 6.960938 22.761719 C 6.453125 22.503906 5.921875 22.339844 5.601562 22.339844 C 5.371094 22.339844 5.289062 22.308594 5.261719 22.210938 C 5.128906 21.789062 4.945312 21.480469 4.582031 21.0625 C 3.675781 20.039062 3.539062 19.09375 4.15625 18.179688 C 4.351562 17.894531 4.359375 17.820312 4.289062 17.277344 C 4.226562 16.8125 4.375 16.359375 4.6875 16.03125 L 4.90625 15.816406 L 5.15625 16.339844 C 5.296875 16.625 5.574219 17.113281 5.785156 17.414062 Z M 5.785156 17.414062 "/>
<path style=" stroke:none;fill-rule:nonzero;fill:rgb(0%,0%,0%);fill-opacity:1;" d="M 10.480469 7.554688 C 10.347656 7.777344 10.289062 7.804688 10.039062 7.804688 L 9.753906 7.804688 L 9.914062 8.0625 C 10.046875 8.285156 10.054688 8.355469 9.992188 8.578125 C 9.949219 8.722656 9.921875 8.84375 9.933594 8.855469 C 9.949219 8.871094 10.074219 8.828125 10.214844 8.769531 C 10.457031 8.664062 10.480469 8.664062 10.710938 8.851562 L 10.953125 9.035156 L 10.953125 8.714844 C 10.953125 8.425781 10.980469 8.371094 11.164062 8.253906 C 11.28125 8.191406 11.371094 8.113281 11.371094 8.082031 C 11.371094 8.0625 11.246094 8.003906 11.09375 7.953125 C 10.941406 7.910156 10.8125 7.832031 10.8125 7.78125 C 10.808594 7.734375 10.773438 7.609375 10.722656 7.503906 L 10.640625 7.304688 Z M 10.480469 7.554688 "/>
<path style=" stroke:none;fill-rule:nonzero;fill:rgb(0%,0%,0%);fill-opacity:1;" d="M 13.25 7.589844 C 13.179688 7.832031 13.125 7.890625 12.894531 7.960938 C 12.746094 8.003906 12.628906 8.0625 12.628906 8.082031 C 12.628906 8.113281 12.726562 8.191406 12.835938 8.253906 C 13.019531 8.371094 13.046875 8.425781 13.046875 8.714844 L 13.046875 9.035156 L 13.289062 8.851562 C 13.519531 8.664062 13.542969 8.664062 13.785156 8.769531 C 13.925781 8.828125 14.058594 8.871094 14.070312 8.855469 C 14.085938 8.835938 14.066406 8.742188 14.023438 8.636719 C 13.917969 8.347656 13.933594 8.269531 14.136719 8.027344 L 14.316406 7.804688 L 14.003906 7.804688 C 13.714844 7.804688 13.675781 7.78125 13.535156 7.554688 C 13.449219 7.417969 13.375 7.304688 13.359375 7.304688 C 13.347656 7.304688 13.289062 7.433594 13.25 7.589844 Z M 13.25 7.589844 "/>
<path style=" stroke:none;fill-rule:nonzero;fill:rgb(0%,0%,0%);fill-opacity:1;" d="M 8.03125 9.34375 C 7.898438 9.542969 7.820312 9.59375 7.589844 9.609375 L 7.3125 9.628906 L 7.464844 9.832031 C 7.597656 10.003906 7.613281 10.066406 7.550781 10.308594 C 7.472656 10.625 7.484375 10.632812 7.800781 10.519531 C 7.996094 10.453125 8.042969 10.46875 8.265625 10.632812 L 8.511719 10.824219 L 8.511719 10.519531 C 8.511719 10.253906 8.546875 10.175781 8.734375 10.015625 L 8.957031 9.824219 L 8.671875 9.738281 C 8.429688 9.660156 8.378906 9.617188 8.335938 9.40625 C 8.28125 9.078125 8.21875 9.0625 8.03125 9.34375 Z M 8.03125 9.34375 "/>
<path style=" stroke:none;fill-rule:nonzero;fill:rgb(0%,0%,0%);fill-opacity:1;" d="M 15.691406 9.371094 C 15.621094 9.609375 15.570312 9.660156 15.328125 9.738281 L 15.042969 9.824219 L 15.265625 10.015625 C 15.453125 10.175781 15.488281 10.253906 15.488281 10.511719 L 15.488281 10.820312 L 15.734375 10.632812 C 15.949219 10.453125 15.992188 10.445312 16.222656 10.523438 C 16.359375 10.574219 16.484375 10.597656 16.5 10.582031 C 16.519531 10.566406 16.492188 10.4375 16.449219 10.296875 C 16.382812 10.066406 16.394531 10.007812 16.535156 9.832031 L 16.6875 9.628906 L 16.402344 9.609375 C 16.171875 9.585938 16.09375 9.542969 15.976562 9.335938 C 15.894531 9.207031 15.816406 9.09375 15.800781 9.09375 C 15.789062 9.09375 15.738281 9.214844 15.691406 9.371094 Z M 15.691406 9.371094 "/>
<path style=" stroke:none;fill-rule:nonzero;fill:rgb(0%,0%,0%);fill-opacity:1;" d="M 10.214844 10.769531 C 10.191406 10.824219 10.1875 10.949219 10.199219 11.039062 L 10.222656 11.207031 L 11.984375 11.226562 L 13.75 11.242188 L 13.730469 10.976562 L 13.710938 10.703125 L 11.980469 10.683594 C 10.527344 10.667969 10.25 10.683594 10.214844 10.769531 Z M 10.214844 10.769531 "/>
<path style=" stroke:none;fill-rule:nonzero;fill:rgb(0%,0%,0%);fill-opacity:1;" d="M 10.277344 11.792969 C 10.164062 11.835938 10.15625 12.1875 10.269531 12.300781 C 10.359375 12.394531 13.417969 12.429688 13.632812 12.34375 C 13.785156 12.285156 13.785156 11.84375 13.632812 11.785156 C 13.5 11.734375 10.402344 11.734375 10.277344 11.792969 Z M 10.277344 11.792969 "/>
<path style=" stroke:none;fill-rule:nonzero;fill:rgb(0%,0%,0%);fill-opacity:1;" d="M 7.125 12.050781 C 6.976562 12.292969 6.933594 12.316406 6.65625 12.316406 L 6.34375 12.316406 L 6.523438 12.566406 C 6.699219 12.789062 6.703125 12.832031 6.628906 13.066406 C 6.578125 13.210938 6.558594 13.339844 6.570312 13.359375 C 6.59375 13.375 6.710938 13.347656 6.84375 13.289062 C 7.058594 13.195312 7.09375 13.203125 7.324219 13.359375 L 7.570312 13.53125 L 7.589844 13.230469 C 7.613281 12.996094 7.660156 12.886719 7.828125 12.746094 L 8.042969 12.558594 L 7.757812 12.472656 C 7.515625 12.394531 7.464844 12.34375 7.382812 12.085938 L 7.285156 11.785156 Z M 7.125 12.050781 "/>
<path style=" stroke:none;fill-rule:nonzero;fill:rgb(0%,0%,0%);fill-opacity:1;" d="M 16.613281 12.101562 C 16.542969 12.34375 16.492188 12.394531 16.242188 12.472656 L 15.957031 12.558594 L 16.171875 12.746094 C 16.339844 12.886719 16.386719 12.996094 16.410156 13.230469 L 16.429688 13.539062 L 16.667969 13.359375 C 16.890625 13.1875 16.910156 13.1875 17.148438 13.289062 C 17.28125 13.347656 17.40625 13.375 17.429688 13.359375 C 17.441406 13.339844 17.421875 13.210938 17.371094 13.066406 C 17.296875 12.832031 17.300781 12.789062 17.476562 12.566406 L 17.65625 12.316406 L 17.34375 12.316406 C 17.066406 12.316406 17.023438 12.292969 16.882812 12.0625 C 16.800781 11.929688 16.722656 11.8125 16.714844 11.8125 C 16.703125 11.8125 16.660156 11.941406 16.613281 12.101562 Z M 16.613281 12.101562 "/>
<path style=" stroke:none;fill-rule:nonzero;fill:rgb(0%,0%,0%);fill-opacity:1;" d="M 10.617188 12.878906 C 10.5625 12.917969 10.535156 13.039062 10.550781 13.179688 L 10.570312 13.425781 L 13.359375 13.425781 L 13.382812 13.179688 C 13.394531 13.039062 13.367188 12.917969 13.3125 12.878906 C 13.261719 12.84375 12.65625 12.816406 11.964844 12.816406 C 11.273438 12.816406 10.667969 12.84375 10.617188 12.878906 Z M 10.617188 12.878906 "/>
<path style=" stroke:none;fill-rule:nonzero;fill:rgb(0%,0%,0%);fill-opacity:1;" d="M 10.351562 14.140625 C 10.261719 14.511719 10.347656 14.535156 12.007812 14.535156 L 13.535156 14.535156 L 13.578125 14.355469 C 13.675781 13.960938 13.675781 13.960938 11.972656 13.960938 L 10.394531 13.960938 Z M 10.351562 14.140625 "/>
<path style=" stroke:none;fill-rule:nonzero;fill:rgb(0%,0%,0%);fill-opacity:1;" d="M 10.144531 15.136719 C 10.125 15.191406 10.117188 15.316406 10.128906 15.40625 L 10.152344 15.574219 L 13.777344 15.574219 L 13.777344 15.070312 L 11.980469 15.050781 C 10.464844 15.035156 10.179688 15.050781 10.144531 15.136719 Z M 10.144531 15.136719 "/>
<path style=" stroke:none;fill-rule:nonzero;fill:rgb(0%,0%,0%);fill-opacity:1;" d="M 9.664062 16.253906 C 9.640625 16.332031 9.640625 16.460938 9.664062 16.539062 C 9.703125 16.683594 9.753906 16.683594 11.984375 16.667969 L 14.265625 16.648438 L 14.265625 16.144531 L 11.984375 16.125 C 9.753906 16.109375 9.703125 16.109375 9.664062 16.253906 Z M 9.664062 16.253906 "/>
<path style=" stroke:none;fill-rule:nonzero;fill:rgb(0%,0%,0%);fill-opacity:1;" d="M 9.375 17.371094 C 9.273438 17.792969 9.246094 17.792969 11.867188 17.8125 C 13.1875 17.820312 14.335938 17.8125 14.429688 17.792969 C 14.566406 17.757812 14.589844 17.714844 14.566406 17.484375 L 14.546875 17.21875 L 11.984375 17.199219 L 9.417969 17.183594 Z M 9.375 17.371094 "/>
<path style=" stroke:none;fill-rule:nonzero;fill:rgb(0%,0%,0%);fill-opacity:1;" d="M 9.167969 18.429688 C 9.148438 18.488281 9.140625 18.609375 9.152344 18.703125 L 9.175781 18.867188 L 14.753906 18.867188 L 14.777344 18.59375 L 14.796875 18.328125 L 12 18.328125 C 9.640625 18.328125 9.203125 18.34375 9.167969 18.429688 Z M 9.167969 18.429688 "/>
</g>
</svg>
